<svg xmlns="http://www.w3.org/2000/svg" viewBox="0 0 1200 720" role="img" aria-labelledby="title desc"><title id="title">Fortune Tiger</title><desc id="desc">Tigre dourado lançando uma carta brilhante em uma sala oriental.</desc><defs><linearGradient id="bg" x2="1" y2="1"><stop stop-color="#17090d"/><stop offset=".55" stop-color="#7f1d1d"/><stop offset="1" stop-color="#f59e0b"/></linearGradient><radialGradient id="halo"><stop stop-color="#fde68a" stop-opacity=".8"/><stop offset="1" stop-color="#f59e0b" stop-opacity="0"/></radialGradient><linearGradient id="fur" x2="1" y2="1"><stop stop-color="#fff3a3"/><stop offset=".5" stop-color="#f59e0b"/><stop offset="1" stop-color="#b45309"/></linearGradient></defs><rect width="1200" height="720" fill="url(#bg)"/><circle cx="900" cy="230" r="270" fill="url(#halo)"/><path d="M0 600 Q300 480 610 600 T1200 560V720H0Z" fill="#16080d" opacity=".8"/><path d="M70 110h220v360H70zM910 80h220v390H910z" fill="#240b11" stroke="#fbbf24" stroke-width="5" opacity=".7"/><path d="M105 150h150M105 205h150M945 135h150M945 190h150" stroke="#ef4444" stroke-width="8" opacity=".6"/><g transform="translate(380 130)"><path d="M180 450c-95-10-145-80-118-178 18-66 76-118 146-134 90-21 181 31 207 119 32 110-43 205-145 193Z" fill="url(#fur)" stroke="#451a03" stroke-width="10"/><path d="M116 160 66 82l95 34M350 115l89-50-35 105" fill="#fbbf24" stroke="#451a03" stroke-width="10"/><path d="M165 195q80-65 160 0l-10 150q-70 58-140 0Z" fill="#fff7cc" opacity=".9"/><path d="M184 212q18-30 40 0M265 212q18-30 40 0" stroke="#451a03" stroke-width="13" fill="none"/><circle cx="207" cy="225" r="10" fill="#451a03"/><circle cx="282" cy="225" r="10" fill="#451a03"/><path d="M227 284q26 24 52 0M220 320q31 26 64 0" stroke="#451a03" stroke-width="9" fill="none"/><path d="M168 357 90 430M329 358l75 70" stroke="#fbbf24" stroke-width="25" stroke-linecap="round"/><path d="M96 431q-70-12-108-65M401 429q70-10 110-66" stroke="#fff3a3" stroke-width="18" stroke-linecap="round" fill="none"/></g><g transform="translate(785 130) rotate(16)"><rect width="170" height="240" rx="14" fill="#fff7cc" stroke="#7f1d1d" stroke-width="12"/><path d="M22 45h126M22 190h126" stroke="#dc2626" stroke-width="12"/><circle cx="85" cy="120" r="45" fill="#f59e0b"/><path d="m85 82 12 25 28 4-20 20 5 28-25-13-25 13 5-28-20-20 28-4z" fill="#fff7cc"/></g><path d="M620 360 Q735 250 825 280" fill="none" stroke="#fde68a" stroke-width="9" stroke-dasharray="20 17"/><text x="70" y="650" fill="#fff3a3" font-family="Georgia,serif" font-size="54" font-weight="700">FORTUNE TIGER</text></svg>